<svg xmlns="http://www.w3.org/2000/svg" xmlns:xlink="http://www.w3.org/1999/xlink" width="1080" zoomAndPan="magnify" viewBox="0 0 810 1439.999935" height="1920" preserveAspectRatio="xMidYMid meet" version="1.2"><defs><clipPath id="7e1e667c0c"><path d="M 38.25 0 L 771.75 0 C 781.894531 0 791.625 4.03125 798.796875 11.203125 C 805.96875 18.375 810 28.105469 810 38.25 L 810 1401.75 C 810 1411.894531 805.96875 1421.625 798.796875 1428.796875 C 791.625 1435.96875 781.894531 1440 771.75 1440 L 38.25 1440 C 28.105469 1440 18.375 1435.96875 11.203125 1428.796875 C 4.03125 1421.625 0 1411.894531 0 1401.75 L 0 38.25 C 0 28.105469 4.03125 18.375 11.203125 11.203125 C 18.375 4.03125 28.105469 0 38.25 0 Z M 38.25 0 "/></clipPath><clipPath id="dec941facf"><path d="M 127 119.425781 L 405 119.425781 L 405 217.972656 L 127 217.972656 Z M 127 119.425781 "/></clipPath><clipPath id="a0f8c0bc7f"><path d="M 374.941406 119.425781 C 391.542969 119.425781 405 141.488281 405 168.699219 C 405 195.910156 391.542969 217.972656 374.941406 217.972656 L 157.0625 217.972656 C 140.460938 217.972656 127 195.910156 127 168.699219 C 127 141.488281 140.460938 119.425781 157.0625 119.425781 Z M 374.941406 119.425781 "/></clipPath><clipPath id="4bc3fecd7b"><path d="M 126.25 119.109375 L 224.792969 119.109375 L 224.792969 397.421875 L 126.25 397.421875 Z M 126.25 119.109375 "/></clipPath><clipPath id="39ecb04b86"><path d="M 126.25 149.480469 C 126.25 132.878906 148.308594 119.421875 175.523438 119.421875 C 202.734375 119.421875 224.792969 132.878906 224.792969 149.480469 L 224.792969 367.363281 C 224.792969 383.964844 202.734375 397.421875 175.523438 397.421875 C 148.308594 397.421875 126.25 383.964844 126.25 367.363281 Z M 126.25 149.480469 "/></clipPath><clipPath id="2df50053e0"><path d="M 405 1231.097656 L 682.992188 1231.097656 L 682.992188 1329.644531 L 405 1329.644531 Z M 405 1231.097656 "/></clipPath><clipPath id="a8b759f376"><path d="M 435.054688 1329.644531 C 418.453125 1329.644531 404.992188 1307.582031 404.992188 1280.371094 C 404.992188 1253.160156 418.453125 1231.097656 435.054688 1231.097656 L 652.933594 1231.097656 C 669.535156 1231.097656 682.992188 1253.160156 682.992188 1280.371094 C 682.992188 1307.582031 669.535156 1329.644531 652.933594 1329.644531 Z M 435.054688 1329.644531 "/></clipPath><clipPath id="381bb22d94"><path d="M 585.199219 1051.648438 L 683.742188 1051.648438 L 683.742188 1329.960938 L 585.199219 1329.960938 Z M 585.199219 1051.648438 "/></clipPath><clipPath id="1aa8a8b916"><path d="M 683.746094 1299.589844 C 683.746094 1316.191406 661.683594 1329.648438 634.472656 1329.648438 C 607.257812 1329.648438 585.199219 1316.191406 585.199219 1299.589844 L 585.199219 1081.707031 C 585.199219 1065.109375 607.257812 1051.648438 634.472656 1051.648438 C 661.683594 1051.648438 683.746094 1065.109375 683.746094 1081.707031 Z M 683.746094 1299.589844 "/></clipPath></defs><g id="f8ef921163"><rect x="0" width="810" y="0" height="1439.999935" style="fill:#ffffff;fill-opacity:1;stroke:none;"/><rect x="0" width="810" y="0" height="1439.999935" style="fill:#ffffff;fill-opacity:1;stroke:none;"/><g clip-rule="nonzero" clip-path="url(#7e1e667c0c)"><path style="fill:none;stroke-width:200;stroke-linecap:butt;stroke-linejoin:miter;stroke:#000000;stroke-opacity:1;stroke-miterlimit:4;" d="M 50.99998 0.0000180836 L 1029.000065 0.0000180836 C 1042.526108 0.0000180836 1055.500067 5.375019 1065.062568 14.937519 C 1074.625069 24.50002 1080.000069 37.47398 1080.000069 51.000023 L 1080.000069 1869.00018 C 1080.000069 1882.526223 1074.625069 1895.500183 1065.062568 1905.062683 C 1055.500067 1914.625184 1042.526108 1920.000185 1029.000065 1920.000185 L 50.99998 1920.000185 C 37.473937 1920.000185 24.499978 1914.625184 14.937477 1905.062683 C 5.374976 1895.500183 -0.000024375 1882.526223 -0.000024375 1869.00018 L -0.000024375 51.000023 C -0.000024375 37.47398 5.374976 24.50002 14.937477 14.937519 C 24.499978 5.375019 37.473937 0.0000180836 50.99998 0.0000180836 Z M 50.99998 0.0000180836 " transform="matrix(0.75,0,0,0.75,0.0000182812,-0.0000135627)"/></g><g clip-rule="nonzero" clip-path="url(#dec941facf)"><g clip-rule="nonzero" clip-path="url(#a0f8c0bc7f)"><path style=" stroke:none;fill-rule:nonzero;fill:#000000;fill-opacity:1;" d="M 127 119.425781 L 404.929688 119.425781 L 404.929688 217.972656 L 127 217.972656 Z M 127 119.425781 "/></g></g><g clip-rule="nonzero" clip-path="url(#4bc3fecd7b)"><g clip-rule="nonzero" clip-path="url(#39ecb04b86)"><path style=" stroke:none;fill-rule:nonzero;fill:#000000;fill-opacity:1;" d="M 126.25 397.421875 L 126.25 119.492188 L 224.792969 119.492188 L 224.792969 397.421875 Z M 126.25 397.421875 "/></g></g><g clip-rule="nonzero" clip-path="url(#2df50053e0)"><g clip-rule="nonzero" clip-path="url(#a8b759f376)"><path style=" stroke:none;fill-rule:nonzero;fill:#000000;fill-opacity:1;" d="M 682.992188 1329.644531 L 405.0625 1329.644531 L 405.0625 1231.097656 L 682.992188 1231.097656 Z M 682.992188 1329.644531 "/></g></g><g clip-rule="nonzero" clip-path="url(#381bb22d94)"><g clip-rule="nonzero" clip-path="url(#1aa8a8b916)"><path style=" stroke:none;fill-rule:nonzero;fill:#000000;fill-opacity:1;" d="M 683.746094 1051.648438 L 683.746094 1329.578125 L 585.199219 1329.578125 L 585.199219 1051.648438 Z M 683.746094 1051.648438 "/></g></g></g></svg>