<svg xmlns="http://www.w3.org/2000/svg" xmlns:xlink="http://www.w3.org/1999/xlink" width="1080" zoomAndPan="magnify" viewBox="0 0 810 1079.999946" height="1440" preserveAspectRatio="xMidYMid meet" version="1.2"><defs><clipPath id="cd422170d1"><path d="M 28.5 0 L 781.5 0 C 789.058594 0 796.308594 3.003906 801.652344 8.347656 C 806.996094 13.691406 810 20.941406 810 28.5 L 810 1051.5 C 810 1059.058594 806.996094 1066.308594 801.652344 1071.652344 C 796.308594 1076.996094 789.058594 1080 781.5 1080 L 28.5 1080 C 20.941406 1080 13.691406 1076.996094 8.347656 1071.652344 C 3.003906 1066.308594 0 1059.058594 0 1051.5 L 0 28.5 C 0 20.941406 3.003906 13.691406 8.347656 8.347656 C 13.691406 3.003906 20.941406 0 28.5 0 Z M 28.5 0 "/></clipPath><clipPath id="a832be8b24"><path d="M 405 858.859375 L 682.992188 858.859375 L 682.992188 957.40625 L 405 957.40625 Z M 405 858.859375 "/></clipPath><clipPath id="48bbb40d9f"><path d="M 435.054688 957.40625 C 418.453125 957.40625 404.992188 935.34375 404.992188 908.132812 C 404.992188 880.921875 418.453125 858.859375 435.054688 858.859375 L 652.933594 858.859375 C 669.535156 858.859375 682.992188 880.921875 682.992188 908.132812 C 682.992188 935.34375 669.535156 957.40625 652.933594 957.40625 Z M 435.054688 957.40625 "/></clipPath><clipPath id="e319cb9489"><path d="M 585.199219 679.410156 L 683.742188 679.410156 L 683.742188 957.722656 L 585.199219 957.722656 Z M 585.199219 679.410156 "/></clipPath><clipPath id="088a736cb5"><path d="M 683.746094 927.351562 C 683.746094 943.953125 661.683594 957.410156 634.472656 957.410156 C 607.257812 957.410156 585.199219 943.953125 585.199219 927.351562 L 585.199219 709.46875 C 585.199219 692.871094 607.257812 679.410156 634.472656 679.410156 C 661.683594 679.410156 683.746094 692.871094 683.746094 709.46875 Z M 683.746094 927.351562 "/></clipPath><clipPath id="aa1a4dfeba"><path d="M 127 120.316406 L 405 120.316406 L 405 218.863281 L 127 218.863281 Z M 127 120.316406 "/></clipPath><clipPath id="428f34eaf9"><path d="M 374.941406 120.316406 C 391.542969 120.316406 405 142.378906 405 169.589844 C 405 196.804688 391.542969 218.863281 374.941406 218.863281 L 157.0625 218.863281 C 140.460938 218.863281 127 196.804688 127 169.589844 C 127 142.378906 140.460938 120.316406 157.0625 120.316406 Z M 374.941406 120.316406 "/></clipPath><clipPath id="2ee7d6ddfd"><path d="M 126.25 120 L 224.792969 120 L 224.792969 398.3125 L 126.25 398.3125 Z M 126.25 120 "/></clipPath><clipPath id="7f59af9a29"><path d="M 126.25 150.371094 C 126.25 133.773438 148.308594 120.3125 175.523438 120.3125 C 202.734375 120.3125 224.792969 133.773438 224.792969 150.371094 L 224.792969 368.253906 C 224.792969 384.855469 202.734375 398.3125 175.523438 398.3125 C 148.308594 398.3125 126.25 384.855469 126.25 368.253906 Z M 126.25 150.371094 "/></clipPath></defs><g id="6f28e8e305"><rect x="0" width="810" y="0" height="1079.999946" style="fill:#ffffff;fill-opacity:1;stroke:none;"/><rect x="0" width="810" y="0" height="1079.999946" style="fill:#ffffff;fill-opacity:1;stroke:none;"/><g clip-rule="nonzero" clip-path="url(#cd422170d1)"><path style="fill:none;stroke-width:200;stroke-linecap:butt;stroke-linejoin:miter;stroke:#000000;stroke-opacity:1;stroke-miterlimit:4;" d="M 37.999976 -0.000031269 L 1042.000069 -0.000031269 C 1052.078194 -0.000031269 1061.744862 4.005177 1068.869863 11.130178 C 1075.994863 18.255179 1080.000072 27.921846 1080.000072 37.999972 L 1080.000072 1402.000097 C 1080.000072 1412.078223 1075.994863 1421.744891 1068.869863 1428.869891 C 1061.744862 1435.994892 1052.078194 1440.000101 1042.000069 1440.000101 L 37.999976 1440.000101 C 27.921851 1440.000101 18.255183 1435.994892 11.130182 1428.869891 C 4.005182 1421.744891 -0.000027 1412.078223 -0.000027 1402.000097 L -0.000027 37.999972 C -0.000027 27.921846 4.005182 18.255179 11.130182 11.130178 C 18.255183 4.005177 27.921851 -0.000031269 37.999976 -0.000031269 Z M 37.999976 -0.000031269 " transform="matrix(0.75,0,0,0.75,0.00002025,0.0000234518)"/></g><g clip-rule="nonzero" clip-path="url(#a832be8b24)"><g clip-rule="nonzero" clip-path="url(#48bbb40d9f)"><path style=" stroke:none;fill-rule:nonzero;fill:#000000;fill-opacity:1;" d="M 682.992188 957.40625 L 405.0625 957.40625 L 405.0625 858.859375 L 682.992188 858.859375 Z M 682.992188 957.40625 "/></g></g><g clip-rule="nonzero" clip-path="url(#e319cb9489)"><g clip-rule="nonzero" clip-path="url(#088a736cb5)"><path style=" stroke:none;fill-rule:nonzero;fill:#000000;fill-opacity:1;" d="M 683.746094 679.410156 L 683.746094 957.339844 L 585.199219 957.339844 L 585.199219 679.410156 Z M 683.746094 679.410156 "/></g></g><g clip-rule="nonzero" clip-path="url(#aa1a4dfeba)"><g clip-rule="nonzero" clip-path="url(#428f34eaf9)"><path style=" stroke:none;fill-rule:nonzero;fill:#000000;fill-opacity:1;" d="M 127 120.316406 L 404.929688 120.316406 L 404.929688 218.863281 L 127 218.863281 Z M 127 120.316406 "/></g></g><g clip-rule="nonzero" clip-path="url(#2ee7d6ddfd)"><g clip-rule="nonzero" clip-path="url(#7f59af9a29)"><path style=" stroke:none;fill-rule:nonzero;fill:#000000;fill-opacity:1;" d="M 126.25 398.3125 L 126.25 120.382812 L 224.792969 120.382812 L 224.792969 398.3125 Z M 126.25 398.3125 "/></g></g></g></svg>