<svg xmlns="http://www.w3.org/2000/svg" xmlns:xlink="http://www.w3.org/1999/xlink" width="1080" zoomAndPan="magnify" viewBox="0 0 810 1214.999947" height="1620" preserveAspectRatio="xMidYMid meet" version="1.2"><defs><clipPath id="c97d9f79dd"><path d="M 28.5 0 L 781.5 0 C 789.058594 0 796.308594 3.003906 801.652344 8.347656 C 806.996094 13.691406 810 20.941406 810 28.5 L 810 1186.5 C 810 1194.058594 806.996094 1201.308594 801.652344 1206.652344 C 796.308594 1211.996094 789.058594 1215 781.5 1215 L 28.5 1215 C 20.941406 1215 13.691406 1211.996094 8.347656 1206.652344 C 3.003906 1201.308594 0 1194.058594 0 1186.5 L 0 28.5 C 0 20.941406 3.003906 13.691406 8.347656 8.347656 C 13.691406 3.003906 20.941406 0 28.5 0 Z M 28.5 0 "/></clipPath><clipPath id="4a3b661437"><path d="M 405 1005.859375 L 682.992188 1005.859375 L 682.992188 1104.40625 L 405 1104.40625 Z M 405 1005.859375 "/></clipPath><clipPath id="3016d7e84a"><path d="M 435.054688 1104.40625 C 418.453125 1104.40625 404.992188 1082.34375 404.992188 1055.132812 C 404.992188 1027.921875 418.453125 1005.859375 435.054688 1005.859375 L 652.933594 1005.859375 C 669.535156 1005.859375 682.992188 1027.921875 682.992188 1055.132812 C 682.992188 1082.34375 669.535156 1104.40625 652.933594 1104.40625 Z M 435.054688 1104.40625 "/></clipPath><clipPath id="700bd4afa5"><path d="M 585.199219 826.410156 L 683.742188 826.410156 L 683.742188 1104.722656 L 585.199219 1104.722656 Z M 585.199219 826.410156 "/></clipPath><clipPath id="1fb9e9e82b"><path d="M 683.746094 1074.351562 C 683.746094 1090.953125 661.683594 1104.410156 634.472656 1104.410156 C 607.257812 1104.410156 585.199219 1090.953125 585.199219 1074.351562 L 585.199219 856.46875 C 585.199219 839.871094 607.257812 826.410156 634.472656 826.410156 C 661.683594 826.410156 683.746094 839.871094 683.746094 856.46875 Z M 683.746094 1074.351562 "/></clipPath><clipPath id="fa405e6da4"><path d="M 127 125.117188 L 405 125.117188 L 405 223.660156 L 127 223.660156 Z M 127 125.117188 "/></clipPath><clipPath id="087da0a517"><path d="M 374.941406 125.117188 C 391.542969 125.117188 405 147.175781 405 174.390625 C 405 201.601562 391.542969 223.660156 374.941406 223.660156 L 157.0625 223.660156 C 140.460938 223.660156 127 201.601562 127 174.390625 C 127 147.175781 140.460938 125.117188 157.0625 125.117188 Z M 374.941406 125.117188 "/></clipPath><clipPath id="d814a59d4f"><path d="M 126.25 125 L 224.792969 125 L 224.792969 403.109375 L 126.25 403.109375 Z M 126.25 125 "/></clipPath><clipPath id="37a5028899"><path d="M 126.25 155.171875 C 126.25 138.570312 148.308594 125.113281 175.523438 125.113281 C 202.734375 125.113281 224.792969 138.570312 224.792969 155.171875 L 224.792969 373.050781 C 224.792969 389.652344 202.734375 403.109375 175.523438 403.109375 C 148.308594 403.109375 126.25 389.652344 126.25 373.050781 Z M 126.25 155.171875 "/></clipPath></defs><g id="853deecd0e"><rect x="0" width="810" y="0" height="1214.999947" style="fill:#ffffff;fill-opacity:1;stroke:none;"/><rect x="0" width="810" y="0" height="1214.999947" style="fill:#ffffff;fill-opacity:1;stroke:none;"/><g clip-rule="nonzero" clip-path="url(#c97d9f79dd)"><path style="fill:none;stroke-width:200;stroke-linecap:butt;stroke-linejoin:miter;stroke:#000000;stroke-opacity:1;stroke-miterlimit:4;" d="M 37.99998 -0.000031269 L 1042.000065 -0.000031269 C 1052.078191 -0.000031269 1061.744859 4.005177 1068.869859 11.130178 C 1075.99486 18.255179 1080.000069 27.921846 1080.000069 37.999972 L 1080.000069 1582.000104 C 1080.000069 1592.07823 1075.99486 1601.744897 1068.869859 1608.869898 C 1061.744859 1615.994898 1052.078191 1620.000107 1042.000065 1620.000107 L 37.99998 1620.000107 C 27.921854 1620.000107 18.255186 1615.994898 11.130186 1608.869898 C 4.005185 1601.744897 -0.0000235556 1592.07823 -0.0000235556 1582.000104 L -0.0000235556 37.999972 C -0.0000235556 27.921846 4.005185 18.255179 11.130186 11.130178 C 18.255186 4.005177 27.921854 -0.000031269 37.99998 -0.000031269 Z M 37.99998 -0.000031269 " transform="matrix(0.75,0,0,0.75,0.0000176667,0.0000234518)"/></g><g clip-rule="nonzero" clip-path="url(#4a3b661437)"><g clip-rule="nonzero" clip-path="url(#3016d7e84a)"><path style=" stroke:none;fill-rule:nonzero;fill:#000000;fill-opacity:1;" d="M 682.992188 1104.40625 L 405.0625 1104.40625 L 405.0625 1005.859375 L 682.992188 1005.859375 Z M 682.992188 1104.40625 "/></g></g><g clip-rule="nonzero" clip-path="url(#700bd4afa5)"><g clip-rule="nonzero" clip-path="url(#1fb9e9e82b)"><path style=" stroke:none;fill-rule:nonzero;fill:#000000;fill-opacity:1;" d="M 683.746094 826.410156 L 683.746094 1104.339844 L 585.199219 1104.339844 L 585.199219 826.410156 Z M 683.746094 826.410156 "/></g></g><g clip-rule="nonzero" clip-path="url(#fa405e6da4)"><g clip-rule="nonzero" clip-path="url(#087da0a517)"><path style=" stroke:none;fill-rule:nonzero;fill:#000000;fill-opacity:1;" d="M 127 125.117188 L 404.929688 125.117188 L 404.929688 223.660156 L 127 223.660156 Z M 127 125.117188 "/></g></g><g clip-rule="nonzero" clip-path="url(#d814a59d4f)"><g clip-rule="nonzero" clip-path="url(#37a5028899)"><path style=" stroke:none;fill-rule:nonzero;fill:#000000;fill-opacity:1;" d="M 126.25 403.109375 L 126.25 125.183594 L 224.792969 125.183594 L 224.792969 403.109375 Z M 126.25 403.109375 "/></g></g></g></svg>