<svg xmlns="http://www.w3.org/2000/svg" xmlns:xlink="http://www.w3.org/1999/xlink" width="1000" zoomAndPan="magnify" viewBox="0 0 750 749.999995" height="1000" preserveAspectRatio="xMidYMid meet" version="1.2"><defs><clipPath id="d5ba09f70d"><path d="M 17.25 0 L 732.75 0 C 737.324219 0 741.710938 1.816406 744.949219 5.050781 C 748.183594 8.289062 750 12.675781 750 17.25 L 750 732.75 C 750 737.324219 748.183594 741.710938 744.949219 744.949219 C 741.710938 748.183594 737.324219 750 732.75 750 L 17.25 750 C 12.675781 750 8.289062 748.183594 5.050781 744.949219 C 1.816406 741.710938 0 737.324219 0 732.75 L 0 17.25 C 0 12.675781 1.816406 8.289062 5.050781 5.050781 C 8.289062 1.816406 12.675781 0 17.25 0 Z M 17.25 0 "/></clipPath><clipPath id="1828996c5b"><path d="M 353 554.445312 L 631.242188 554.445312 L 631.242188 652.992188 L 353 652.992188 Z M 353 554.445312 "/></clipPath><clipPath id="86761611cf"><path d="M 383.304688 652.992188 C 366.703125 652.992188 353.242188 630.933594 353.242188 603.71875 C 353.242188 576.507812 366.703125 554.445312 383.304688 554.445312 L 601.183594 554.445312 C 617.785156 554.445312 631.242188 576.507812 631.242188 603.71875 C 631.242188 630.933594 617.785156 652.992188 601.183594 652.992188 Z M 383.304688 652.992188 "/></clipPath><clipPath id="3ef615032f"><path d="M 533.449219 374.996094 L 631.996094 374.996094 L 631.996094 653 L 533.449219 653 Z M 533.449219 374.996094 "/></clipPath><clipPath id="5aeda6ca26"><path d="M 631.996094 622.9375 C 631.996094 639.539062 609.933594 652.996094 582.722656 652.996094 C 555.507812 652.996094 533.449219 639.539062 533.449219 622.9375 L 533.449219 405.058594 C 533.449219 388.457031 555.507812 374.996094 582.722656 374.996094 C 609.933594 374.996094 631.996094 388.457031 631.996094 405.058594 Z M 631.996094 622.9375 "/></clipPath><clipPath id="30e1fb2b4d"><path d="M 113.859375 108.25 L 392 108.25 L 392 206.796875 L 113.859375 206.796875 Z M 113.859375 108.25 "/></clipPath><clipPath id="9787e8f9d1"><path d="M 361.796875 108.25 C 378.398438 108.25 391.855469 130.3125 391.855469 157.523438 C 391.855469 184.738281 378.398438 206.796875 361.796875 206.796875 L 143.917969 206.796875 C 127.316406 206.796875 113.859375 184.738281 113.859375 157.523438 C 113.859375 130.3125 127.316406 108.25 143.917969 108.25 Z M 361.796875 108.25 "/></clipPath><clipPath id="79d087a8c2"><path d="M 113.105469 108 L 211.652344 108 L 211.652344 386.246094 L 113.105469 386.246094 Z M 113.105469 108 "/></clipPath><clipPath id="c6c83248d5"><path d="M 113.105469 138.304688 C 113.105469 121.707031 135.164062 108.246094 162.378906 108.246094 C 189.589844 108.246094 211.652344 121.707031 211.652344 138.304688 L 211.652344 356.1875 C 211.652344 372.789062 189.589844 386.246094 162.378906 386.246094 C 135.164062 386.246094 113.105469 372.789062 113.105469 356.1875 Z M 113.105469 138.304688 "/></clipPath></defs><g id="a53d7ddd58"><rect x="0" width="750" y="0" height="749.999995" style="fill:#ffffff;fill-opacity:1;stroke:none;"/><rect x="0" width="750" y="0" height="749.999995" style="fill:#ffffff;fill-opacity:1;stroke:none;"/><g clip-rule="nonzero" clip-path="url(#d5ba09f70d)"><path style="fill:none;stroke-width:200;stroke-linecap:butt;stroke-linejoin:miter;stroke:#000000;stroke-opacity:1;stroke-miterlimit:4;" d="M 22.999999 -0.0000266667 L 977.000107 -0.0000266667 C 983.099066 -0.0000266667 988.948025 2.421849 993.265733 6.734349 C 997.578234 11.052058 1000.000109 16.901017 1000.000109 22.999976 L 1000.000109 977.000083 C 1000.000109 983.099042 997.578234 988.948001 993.265733 993.26571 C 988.948025 997.578211 983.099066 1000.000086 977.000107 1000.000086 L 22.999999 1000.000086 C 16.90104 1000.000086 11.052081 997.578211 6.734372 993.26571 C 2.421872 988.948001 -0.00000353333 983.099042 -0.00000353333 977.000083 L -0.00000353333 22.999976 C -0.00000353333 16.901017 2.421872 11.052058 6.734372 6.734349 C 11.052081 2.421849 16.90104 -0.0000266667 22.999999 -0.0000266667 Z M 22.999999 -0.0000266667 " transform="matrix(0.75,0,0,0.75,0.00000265,0.00002)"/></g><g clip-rule="nonzero" clip-path="url(#1828996c5b)"><g clip-rule="nonzero" clip-path="url(#86761611cf)"><path style=" stroke:none;fill-rule:nonzero;fill:#000000;fill-opacity:1;" d="M 631.242188 652.992188 L 353.3125 652.992188 L 353.3125 554.445312 L 631.242188 554.445312 Z M 631.242188 652.992188 "/></g></g><g clip-rule="nonzero" clip-path="url(#3ef615032f)"><g clip-rule="nonzero" clip-path="url(#5aeda6ca26)"><path style=" stroke:none;fill-rule:nonzero;fill:#000000;fill-opacity:1;" d="M 631.996094 374.996094 L 631.996094 652.925781 L 533.449219 652.925781 L 533.449219 374.996094 Z M 631.996094 374.996094 "/></g></g><g clip-rule="nonzero" clip-path="url(#30e1fb2b4d)"><g clip-rule="nonzero" clip-path="url(#9787e8f9d1)"><path style=" stroke:none;fill-rule:nonzero;fill:#000000;fill-opacity:1;" d="M 113.859375 108.25 L 391.785156 108.25 L 391.785156 206.796875 L 113.859375 206.796875 Z M 113.859375 108.25 "/></g></g><g clip-rule="nonzero" clip-path="url(#79d087a8c2)"><g clip-rule="nonzero" clip-path="url(#c6c83248d5)"><path style=" stroke:none;fill-rule:nonzero;fill:#000000;fill-opacity:1;" d="M 113.105469 386.246094 L 113.105469 108.316406 L 211.652344 108.316406 L 211.652344 386.246094 Z M 113.105469 386.246094 "/></g></g></g></svg>