<svg xmlns="http://www.w3.org/2000/svg" xmlns:xlink="http://www.w3.org/1999/xlink" width="1600" zoomAndPan="magnify" viewBox="0 0 1200 899.99999" height="1200" preserveAspectRatio="xMidYMid meet" version="1.2"><defs><clipPath id="8578893669"><path d="M 17.25 0 L 1182.75 0 C 1187.324219 0 1191.710938 1.816406 1194.949219 5.050781 C 1198.183594 8.289062 1200 12.675781 1200 17.25 L 1200 882.75 C 1200 887.324219 1198.183594 891.710938 1194.949219 894.949219 C 1191.710938 898.183594 1187.324219 900 1182.75 900 L 17.25 900 C 12.675781 900 8.289062 898.183594 5.050781 894.949219 C 1.816406 891.710938 0 887.324219 0 882.75 L 0 17.25 C 0 12.675781 1.816406 8.289062 5.050781 5.050781 C 8.289062 1.816406 12.675781 0 17.25 0 Z M 17.25 0 "/></clipPath><clipPath id="e5d16c8e60"><path d="M 801 691.949219 L 1079.242188 691.949219 L 1079.242188 790.492188 L 801 790.492188 Z M 801 691.949219 "/></clipPath><clipPath id="ba5200f3fb"><path d="M 831.304688 790.492188 C 814.703125 790.492188 801.246094 768.433594 801.246094 741.222656 C 801.246094 714.007812 814.703125 691.949219 831.304688 691.949219 L 1049.183594 691.949219 C 1065.785156 691.949219 1079.242188 714.007812 1079.242188 741.222656 C 1079.242188 768.433594 1065.785156 790.492188 1049.183594 790.492188 Z M 831.304688 790.492188 "/></clipPath><clipPath id="63a7bbddb9"><path d="M 981.449219 512.5 L 1079.996094 512.5 L 1079.996094 790.8125 L 981.449219 790.8125 Z M 981.449219 512.5 "/></clipPath><clipPath id="eab56c8ef6"><path d="M 1079.996094 760.4375 C 1079.996094 777.039062 1057.9375 790.496094 1030.722656 790.496094 C 1003.511719 790.496094 981.449219 777.039062 981.449219 760.4375 L 981.449219 542.558594 C 981.449219 525.957031 1003.511719 512.5 1030.722656 512.5 C 1057.9375 512.5 1079.996094 525.957031 1079.996094 542.558594 Z M 1079.996094 760.4375 "/></clipPath><clipPath id="adcf624ac1"><path d="M 131.671875 118.671875 L 409.984375 118.671875 L 409.984375 217.214844 L 131.671875 217.214844 Z M 131.671875 118.671875 "/></clipPath><clipPath id="73e981c9ef"><path d="M 379.609375 118.671875 C 396.210938 118.671875 409.671875 140.730469 409.671875 167.945312 C 409.671875 195.15625 396.210938 217.214844 379.609375 217.214844 L 161.730469 217.214844 C 145.128906 217.214844 131.671875 195.15625 131.671875 167.945312 C 131.671875 140.730469 145.128906 118.671875 161.730469 118.671875 Z M 379.609375 118.671875 "/></clipPath><clipPath id="165dfd0757"><path d="M 130.917969 118.351562 L 229.464844 118.351562 L 229.464844 396.664062 L 130.917969 396.664062 Z M 130.917969 118.351562 "/></clipPath><clipPath id="56c0fce66e"><path d="M 130.917969 148.726562 C 130.917969 132.125 152.980469 118.667969 180.191406 118.667969 C 207.40625 118.667969 229.464844 132.125 229.464844 148.726562 L 229.464844 366.605469 C 229.464844 383.207031 207.40625 396.664062 180.191406 396.664062 C 152.980469 396.664062 130.917969 383.207031 130.917969 366.605469 Z M 130.917969 148.726562 "/></clipPath></defs><g id="e7408fb7af"><rect x="0" width="1200" y="0" height="899.99999" style="fill:#ffffff;fill-opacity:1;stroke:none;"/><rect x="0" width="1200" y="0" height="899.99999" style="fill:#ffffff;fill-opacity:1;stroke:none;"/><g clip-rule="nonzero" clip-path="url(#8578893669)"><path style="fill:none;stroke-width:200;stroke-linecap:butt;stroke-linejoin:miter;stroke:#000000;stroke-opacity:1;stroke-miterlimit:4;" d="M 22.999993 -0.0000445481 L 1577.000074 -0.0000445481 C 1583.099033 -0.0000445481 1588.947991 2.421831 1593.2657 6.734331 C 1597.5782 11.052039 1600.000075 16.900998 1600.000075 22.999957 L 1600.000075 1177.000017 C 1600.000075 1183.098976 1597.5782 1188.947934 1593.2657 1193.265643 C 1588.947991 1197.578143 1583.099033 1200.000018 1577.000074 1200.000018 L 22.999993 1200.000018 C 16.901034 1200.000018 11.052075 1197.578143 6.734367 1193.265643 C 2.421867 1188.947934 -0.00000853333 1183.098976 -0.00000853333 1177.000017 L -0.00000853333 22.999957 C -0.00000853333 16.900998 2.421867 11.052039 6.734367 6.734331 C 11.052075 2.421831 16.901034 -0.0000445481 22.999993 -0.0000445481 Z M 22.999993 -0.0000445481 " transform="matrix(0.75,0,0,0.75,0.0000064,0.000033411)"/></g><g clip-rule="nonzero" clip-path="url(#e5d16c8e60)"><g clip-rule="nonzero" clip-path="url(#ba5200f3fb)"><path style=" stroke:none;fill-rule:nonzero;fill:#000000;fill-opacity:1;" d="M 1079.242188 790.492188 L 801.316406 790.492188 L 801.316406 691.949219 L 1079.242188 691.949219 Z M 1079.242188 790.492188 "/></g></g><g clip-rule="nonzero" clip-path="url(#63a7bbddb9)"><g clip-rule="nonzero" clip-path="url(#eab56c8ef6)"><path style=" stroke:none;fill-rule:nonzero;fill:#000000;fill-opacity:1;" d="M 1079.996094 512.5 L 1079.996094 790.425781 L 981.449219 790.425781 L 981.449219 512.5 Z M 1079.996094 512.5 "/></g></g><g clip-rule="nonzero" clip-path="url(#adcf624ac1)"><g clip-rule="nonzero" clip-path="url(#73e981c9ef)"><path style=" stroke:none;fill-rule:nonzero;fill:#000000;fill-opacity:1;" d="M 131.671875 118.671875 L 409.601562 118.671875 L 409.601562 217.214844 L 131.671875 217.214844 Z M 131.671875 118.671875 "/></g></g><g clip-rule="nonzero" clip-path="url(#165dfd0757)"><g clip-rule="nonzero" clip-path="url(#56c0fce66e)"><path style=" stroke:none;fill-rule:nonzero;fill:#000000;fill-opacity:1;" d="M 130.917969 396.664062 L 130.917969 118.738281 L 229.464844 118.738281 L 229.464844 396.664062 Z M 130.917969 396.664062 "/></g></g></g></svg>