<svg xmlns="http://www.w3.org/2000/svg" xmlns:xlink="http://www.w3.org/1999/xlink" width="1620" zoomAndPan="magnify" viewBox="0 0 1215 809.999993" height="1080" preserveAspectRatio="xMidYMid meet" version="1.2"><defs><clipPath id="c325a57030"><path d="M 15.75 0 L 1199.25 0 C 1207.949219 0 1215 7.050781 1215 15.75 L 1215 794.25 C 1215 802.949219 1207.949219 810 1199.25 810 L 15.75 810 C 7.050781 810 0 802.949219 0 794.25 L 0 15.75 C 0 7.050781 7.050781 0 15.75 0 Z M 15.75 0 "/></clipPath><clipPath id="5d86de301b"><path d="M 807.089844 595.695312 L 1085.402344 595.695312 L 1085.402344 694.242188 L 807.089844 694.242188 Z M 807.089844 595.695312 "/></clipPath><clipPath id="4ca7bd3aea"><path d="M 837.464844 694.242188 C 820.863281 694.242188 807.402344 672.183594 807.402344 644.96875 C 807.402344 617.757812 820.863281 595.695312 837.464844 595.695312 L 1055.34375 595.695312 C 1071.945312 595.695312 1085.402344 617.757812 1085.402344 644.96875 C 1085.402344 672.183594 1071.945312 694.242188 1055.34375 694.242188 Z M 837.464844 694.242188 "/></clipPath><clipPath id="8a1f78e5e2"><path d="M 987.609375 416.246094 L 1086.15625 416.246094 L 1086.15625 694.5625 L 987.609375 694.5625 Z M 987.609375 416.246094 "/></clipPath><clipPath id="556b8b479d"><path d="M 1086.15625 664.1875 C 1086.15625 680.789062 1064.09375 694.246094 1036.882812 694.246094 C 1009.667969 694.246094 987.609375 680.789062 987.609375 664.1875 L 987.609375 446.308594 C 987.609375 429.707031 1009.667969 416.246094 1036.882812 416.246094 C 1064.09375 416.246094 1086.15625 429.707031 1086.15625 446.308594 Z M 1086.15625 664.1875 "/></clipPath><clipPath id="00900ef527"><path d="M 133.359375 127 L 411.671875 127 L 411.671875 225.546875 L 133.359375 225.546875 Z M 133.359375 127 "/></clipPath><clipPath id="d1d258db9b"><path d="M 381.300781 127 C 397.902344 127 411.359375 149.0625 411.359375 176.273438 C 411.359375 203.488281 397.902344 225.546875 381.300781 225.546875 L 163.417969 225.546875 C 146.820312 225.546875 133.359375 203.488281 133.359375 176.273438 C 133.359375 149.0625 146.820312 127 163.417969 127 Z M 381.300781 127 "/></clipPath><clipPath id="0cae9aba8f"><path d="M 132.609375 127 L 231.152344 127 L 231.152344 404.996094 L 132.609375 404.996094 Z M 132.609375 127 "/></clipPath><clipPath id="a694ab8c8a"><path d="M 132.609375 157.054688 C 132.609375 140.457031 154.667969 126.996094 181.882812 126.996094 C 209.09375 126.996094 231.152344 140.457031 231.152344 157.054688 L 231.152344 374.9375 C 231.152344 391.539062 209.09375 404.996094 181.882812 404.996094 C 154.667969 404.996094 132.609375 391.539062 132.609375 374.9375 Z M 132.609375 157.054688 "/></clipPath></defs><g id="873f289aee"><rect x="0" width="1215" y="0" height="809.999993" style="fill:#ffffff;fill-opacity:1;stroke:none;"/><rect x="0" width="1215" y="0" height="809.999993" style="fill:#ffffff;fill-opacity:1;stroke:none;"/><g clip-rule="nonzero" clip-path="url(#c325a57030)"><path style="fill:none;stroke-width:200;stroke-linecap:butt;stroke-linejoin:miter;stroke:#000000;stroke-opacity:1;stroke-miterlimit:4;" d="M 20.999994 -0.0000266667 L 1599.000073 -0.0000266667 C 1610.599032 -0.0000266667 1620.000075 9.401015 1620.000075 20.999974 L 1620.000075 1059.000027 C 1620.000075 1070.598986 1610.599032 1080.000028 1599.000073 1080.000028 L 20.999994 1080.000028 C 9.401035 1080.000028 -0.000007 1070.598986 -0.000007 1059.000027 L -0.000007 20.999974 C -0.000007 9.401015 9.401035 -0.0000266667 20.999994 -0.0000266667 Z M 20.999994 -0.0000266667 " transform="matrix(0.75,0,0,0.75,0.00000525,0.00002)"/></g><g clip-rule="nonzero" clip-path="url(#5d86de301b)"><g clip-rule="nonzero" clip-path="url(#4ca7bd3aea)"><path style=" stroke:none;fill-rule:nonzero;fill:#000000;fill-opacity:1;" d="M 1085.402344 694.242188 L 807.472656 694.242188 L 807.472656 595.695312 L 1085.402344 595.695312 Z M 1085.402344 694.242188 "/></g></g><g clip-rule="nonzero" clip-path="url(#8a1f78e5e2)"><g clip-rule="nonzero" clip-path="url(#556b8b479d)"><path style=" stroke:none;fill-rule:nonzero;fill:#000000;fill-opacity:1;" d="M 1086.15625 416.246094 L 1086.15625 694.175781 L 987.609375 694.175781 L 987.609375 416.246094 Z M 1086.15625 416.246094 "/></g></g><g clip-rule="nonzero" clip-path="url(#00900ef527)"><g clip-rule="nonzero" clip-path="url(#d1d258db9b)"><path style=" stroke:none;fill-rule:nonzero;fill:#000000;fill-opacity:1;" d="M 133.359375 127 L 411.289062 127 L 411.289062 225.546875 L 133.359375 225.546875 Z M 133.359375 127 "/></g></g><g clip-rule="nonzero" clip-path="url(#0cae9aba8f)"><g clip-rule="nonzero" clip-path="url(#a694ab8c8a)"><path style=" stroke:none;fill-rule:nonzero;fill:#000000;fill-opacity:1;" d="M 132.609375 404.996094 L 132.609375 127.066406 L 231.152344 127.066406 L 231.152344 404.996094 Z M 132.609375 404.996094 "/></g></g></g></svg>