<svg xmlns="http://www.w3.org/2000/svg" xmlns:xlink="http://www.w3.org/1999/xlink" width="1920" zoomAndPan="magnify" viewBox="0 0 1440 809.999993" height="1080" preserveAspectRatio="xMidYMid meet" version="1.2"><defs><clipPath id="e85ecc8a40"><path d="M 15.75 0 L 1424.25 0 C 1432.949219 0 1440 7.050781 1440 15.75 L 1440 794.25 C 1440 802.949219 1432.949219 810 1424.25 810 L 15.75 810 C 7.050781 810 0 802.949219 0 794.25 L 0 15.75 C 0 7.050781 7.050781 0 15.75 0 Z M 15.75 0 "/></clipPath><clipPath id="cd109b2894"><path d="M 1034.125 594.945312 L 1312.441406 594.945312 L 1312.441406 693.492188 L 1034.125 693.492188 Z M 1034.125 594.945312 "/></clipPath><clipPath id="b288c38709"><path d="M 1064.5 693.492188 C 1047.898438 693.492188 1034.441406 671.433594 1034.441406 644.21875 C 1034.441406 617.007812 1047.898438 594.945312 1064.5 594.945312 L 1282.382812 594.945312 C 1298.980469 594.945312 1312.441406 617.007812 1312.441406 644.21875 C 1312.441406 671.433594 1298.980469 693.492188 1282.382812 693.492188 Z M 1064.5 693.492188 "/></clipPath><clipPath id="1106c1fb2a"><path d="M 1214.648438 415.496094 L 1313.191406 415.496094 L 1313.191406 693.8125 L 1214.648438 693.8125 Z M 1214.648438 415.496094 "/></clipPath><clipPath id="0c3c07edea"><path d="M 1313.191406 663.4375 C 1313.191406 680.039062 1291.132812 693.496094 1263.917969 693.496094 C 1236.707031 693.496094 1214.648438 680.039062 1214.648438 663.4375 L 1214.648438 445.558594 C 1214.648438 428.957031 1236.707031 415.496094 1263.917969 415.496094 C 1291.132812 415.496094 1313.191406 428.957031 1313.191406 445.558594 Z M 1313.191406 663.4375 "/></clipPath><clipPath id="a0848671c7"><path d="M 132.957031 129.25 L 411 129.25 L 411 227.796875 L 132.957031 227.796875 Z M 132.957031 129.25 "/></clipPath><clipPath id="8ec3b6642d"><path d="M 380.894531 129.25 C 397.496094 129.25 410.953125 151.3125 410.953125 178.523438 C 410.953125 205.738281 397.496094 227.796875 380.894531 227.796875 L 163.015625 227.796875 C 146.414062 227.796875 132.957031 205.738281 132.957031 178.523438 C 132.957031 151.3125 146.414062 129.25 163.015625 129.25 Z M 380.894531 129.25 "/></clipPath><clipPath id="1a579e86a8"><path d="M 132.203125 129 L 230.75 129 L 230.75 407.246094 L 132.203125 407.246094 Z M 132.203125 129 "/></clipPath><clipPath id="62c4d43b32"><path d="M 132.203125 159.304688 C 132.203125 142.707031 154.265625 129.246094 181.476562 129.246094 C 208.691406 129.246094 230.75 142.707031 230.75 159.304688 L 230.75 377.1875 C 230.75 393.789062 208.691406 407.246094 181.476562 407.246094 C 154.265625 407.246094 132.203125 393.789062 132.203125 377.1875 Z M 132.203125 159.304688 "/></clipPath></defs><g id="0eef6054aa"><rect x="0" width="1440" y="0" height="809.999993" style="fill:#ffffff;fill-opacity:1;stroke:none;"/><rect x="0" width="1440" y="0" height="809.999993" style="fill:#ffffff;fill-opacity:1;stroke:none;"/><g clip-rule="nonzero" clip-path="url(#e85ecc8a40)"><path style="fill:none;stroke-width:200;stroke-linecap:butt;stroke-linejoin:miter;stroke:#000000;stroke-opacity:1;stroke-miterlimit:4;" d="M 20.999993 -0.00003069 L 1899.000087 -0.00003069 C 1910.599046 -0.00003069 1920.000088 9.401011 1920.000088 20.99997 L 1920.000088 1059.000023 C 1920.000088 1070.598982 1910.599046 1080.000024 1899.000087 1080.000024 L 20.999993 1080.000024 C 9.401034 1080.000024 -0.0000082963 1070.598982 -0.0000082963 1059.000023 L -0.0000082963 20.99997 C -0.0000082963 9.401011 9.401034 -0.00003069 20.999993 -0.00003069 Z M 20.999993 -0.00003069 " transform="matrix(0.75,0,0,0.75,0.00000622222,0.0000230175)"/></g><g clip-rule="nonzero" clip-path="url(#cd109b2894)"><g clip-rule="nonzero" clip-path="url(#b288c38709)"><path style=" stroke:none;fill-rule:nonzero;fill:#000000;fill-opacity:1;" d="M 1312.441406 693.492188 L 1034.511719 693.492188 L 1034.511719 594.945312 L 1312.441406 594.945312 Z M 1312.441406 693.492188 "/></g></g><g clip-rule="nonzero" clip-path="url(#1106c1fb2a)"><g clip-rule="nonzero" clip-path="url(#0c3c07edea)"><path style=" stroke:none;fill-rule:nonzero;fill:#000000;fill-opacity:1;" d="M 1313.191406 415.496094 L 1313.191406 693.425781 L 1214.648438 693.425781 L 1214.648438 415.496094 Z M 1313.191406 415.496094 "/></g></g><g clip-rule="nonzero" clip-path="url(#a0848671c7)"><g clip-rule="nonzero" clip-path="url(#8ec3b6642d)"><path style=" stroke:none;fill-rule:nonzero;fill:#000000;fill-opacity:1;" d="M 132.957031 129.25 L 410.882812 129.25 L 410.882812 227.796875 L 132.957031 227.796875 Z M 132.957031 129.25 "/></g></g><g clip-rule="nonzero" clip-path="url(#1a579e86a8)"><g clip-rule="nonzero" clip-path="url(#62c4d43b32)"><path style=" stroke:none;fill-rule:nonzero;fill:#000000;fill-opacity:1;" d="M 132.203125 407.246094 L 132.203125 129.316406 L 230.75 129.316406 L 230.75 407.246094 Z M 132.203125 407.246094 "/></g></g></g></svg>