<svg xmlns="http://www.w3.org/2000/svg" xmlns:xlink="http://www.w3.org/1999/xlink" width="1000" zoomAndPan="magnify" viewBox="0 0 750 749.999995" height="1000" preserveAspectRatio="xMidYMid meet" version="1.2"><defs><clipPath id="8bcfaffa11"><path d="M 17.25 0 L 732.75 0 C 737.324219 0 741.710938 1.816406 744.949219 5.050781 C 748.183594 8.289062 750 12.675781 750 17.25 L 750 732.75 C 750 737.324219 748.183594 741.710938 744.949219 744.949219 C 741.710938 748.183594 737.324219 750 732.75 750 L 17.25 750 C 12.675781 750 8.289062 748.183594 5.050781 744.949219 C 1.816406 741.710938 0 737.324219 0 732.75 L 0 17.25 C 0 12.675781 1.816406 8.289062 5.050781 5.050781 C 8.289062 1.816406 12.675781 0 17.25 0 Z M 17.25 0 "/></clipPath><clipPath id="a4e9322b64"><path d="M 104.050781 100.878906 L 261.765625 100.878906 L 261.765625 156.722656 L 104.050781 156.722656 Z M 104.050781 100.878906 "/></clipPath><clipPath id="a264bca1a5"><path d="M 244.554688 100.878906 C 253.960938 100.878906 261.585938 113.378906 261.585938 128.800781 C 261.585938 144.21875 253.960938 156.722656 244.554688 156.722656 L 121.085938 156.722656 C 111.679688 156.722656 104.050781 144.21875 104.050781 128.800781 C 104.050781 113.378906 111.679688 100.878906 121.085938 100.878906 Z M 244.554688 100.878906 "/></clipPath><clipPath id="41d0f3616c"><path d="M 103.625 100.699219 L 159.46875 100.699219 L 159.46875 258.410156 L 103.625 258.410156 Z M 103.625 100.699219 "/></clipPath><clipPath id="ae57b1d989"><path d="M 103.625 117.910156 C 103.625 108.5 116.128906 100.875 131.546875 100.875 C 146.96875 100.875 159.46875 108.5 159.46875 117.910156 L 159.46875 241.375 C 159.46875 250.785156 146.96875 258.410156 131.546875 258.410156 C 116.128906 258.410156 103.625 250.785156 103.625 241.375 Z M 103.625 117.910156 "/></clipPath><clipPath id="3204ad638a"><path d="M 484.371094 605.359375 L 642.082031 605.359375 L 642.082031 661.203125 L 484.371094 661.203125 Z M 484.371094 605.359375 "/></clipPath><clipPath id="8e9ec254e4"><path d="M 501.582031 661.203125 C 492.175781 661.203125 484.546875 648.703125 484.546875 633.28125 C 484.546875 617.859375 492.175781 605.359375 501.582031 605.359375 L 625.050781 605.359375 C 634.457031 605.359375 642.082031 617.859375 642.082031 633.28125 C 642.082031 648.703125 634.457031 661.203125 625.050781 661.203125 Z M 501.582031 661.203125 "/></clipPath><clipPath id="70975ccf2d"><path d="M 586.664062 503.671875 L 642.507812 503.671875 L 642.507812 661.382812 L 586.664062 661.382812 Z M 586.664062 503.671875 "/></clipPath><clipPath id="8360697b2d"><path d="M 642.507812 644.171875 C 642.507812 653.578125 630.007812 661.203125 614.585938 661.203125 C 599.167969 661.203125 586.664062 653.578125 586.664062 644.171875 L 586.664062 520.703125 C 586.664062 511.296875 599.167969 503.671875 614.585938 503.671875 C 630.007812 503.671875 642.507812 511.296875 642.507812 520.703125 Z M 642.507812 644.171875 "/></clipPath></defs><g id="591b2c3433"><rect x="0" width="750" y="0" height="749.999995" style="fill:#ffffff;fill-opacity:1;stroke:none;"/><rect x="0" width="750" y="0" height="749.999995" style="fill:#ffffff;fill-opacity:1;stroke:none;"/><g clip-rule="nonzero" clip-path="url(#8bcfaffa11)"><path style="fill:none;stroke-width:138;stroke-linecap:butt;stroke-linejoin:miter;stroke:#000000;stroke-opacity:1;stroke-miterlimit:4;" d="M 22.999999 -0.0000266667 L 977.000107 -0.0000266667 C 983.099066 -0.0000266667 988.948025 2.421849 993.265733 6.734349 C 997.578234 11.052058 1000.000109 16.901017 1000.000109 22.999976 L 1000.000109 977.000083 C 1000.000109 983.099042 997.578234 988.948001 993.265733 993.26571 C 988.948025 997.578211 983.099066 1000.000086 977.000107 1000.000086 L 22.999999 1000.000086 C 16.90104 1000.000086 11.052081 997.578211 6.734372 993.26571 C 2.421872 988.948001 -0.00000353333 983.099042 -0.00000353333 977.000083 L -0.00000353333 22.999976 C -0.00000353333 16.901017 2.421872 11.052058 6.734372 6.734349 C 11.052081 2.421849 16.90104 -0.0000266667 22.999999 -0.0000266667 Z M 22.999999 -0.0000266667 " transform="matrix(0.75,0,0,0.75,0.00000265,0.00002)"/></g><g clip-rule="nonzero" clip-path="url(#a4e9322b64)"><g clip-rule="nonzero" clip-path="url(#a264bca1a5)"><path style=" stroke:none;fill-rule:nonzero;fill:#000000;fill-opacity:1;" d="M 104.050781 100.878906 L 261.546875 100.878906 L 261.546875 156.722656 L 104.050781 156.722656 Z M 104.050781 100.878906 "/></g></g><g clip-rule="nonzero" clip-path="url(#41d0f3616c)"><g clip-rule="nonzero" clip-path="url(#ae57b1d989)"><path style=" stroke:none;fill-rule:nonzero;fill:#000000;fill-opacity:1;" d="M 103.625 258.410156 L 103.625 100.914062 L 159.46875 100.914062 L 159.46875 258.410156 Z M 103.625 258.410156 "/></g></g><g clip-rule="nonzero" clip-path="url(#3204ad638a)"><g clip-rule="nonzero" clip-path="url(#8e9ec254e4)"><path style=" stroke:none;fill-rule:nonzero;fill:#000000;fill-opacity:1;" d="M 642.082031 661.203125 L 484.589844 661.203125 L 484.589844 605.359375 L 642.082031 605.359375 Z M 642.082031 661.203125 "/></g></g><g clip-rule="nonzero" clip-path="url(#70975ccf2d)"><g clip-rule="nonzero" clip-path="url(#8360697b2d)"><path style=" stroke:none;fill-rule:nonzero;fill:#000000;fill-opacity:1;" d="M 642.507812 503.671875 L 642.507812 661.164062 L 586.664062 661.164062 L 586.664062 503.671875 Z M 642.507812 503.671875 "/></g></g></g></svg>